# Blender v2.81 (sub 16) OBJ File: ''
# www.blender.org
mtllib axis.mtl
o narrowarrow
v 0.000000 9.865700 0.000002
v 0.000000 9.301056 -0.218398
v -0.042608 9.301056 -0.214201
v -0.083578 9.301056 -0.201773
v -0.121336 9.301056 -0.181591
v -0.154431 9.301056 -0.154430
v -0.181592 9.301056 -0.121335
v -0.201774 9.301056 -0.083577
v -0.214202 9.301056 -0.042607
v -0.218399 9.301056 0.000001
v -0.214202 9.301056 0.042608
v -0.201774 9.301056 0.083579
v -0.181592 9.301056 0.121337
v -0.154431 9.301056 0.154432
v -0.121336 9.301056 0.181593
v -0.083578 9.301056 0.201775
v -0.042607 9.301056 0.214203
v 0.000000 9.301056 0.218400
v 0.042608 9.301056 0.214203
v 0.083578 9.301056 0.201775
v 0.121336 9.301056 0.181593
v 0.154431 9.301056 0.154432
v 0.181592 9.301056 0.121337
v 0.201774 9.301056 0.083578
v 0.214202 9.301056 0.042608
v 0.218399 9.301056 0.000001
v 0.214202 9.301056 -0.042607
v 0.201774 9.301056 -0.083577
v 0.181592 9.301056 -0.121335
v 0.154431 9.301056 -0.154431
v 0.121336 9.301056 -0.181591
v 0.083577 9.301056 -0.201773
v 0.042607 9.301056 -0.214201
v 0.116799 9.301056 0.048381
v -0.105116 9.301056 0.070237
v 0.000000 9.301056 -0.126421
v 0.105116 9.301056 0.070237
v -0.116799 9.301056 0.048381
v 0.024664 9.301056 -0.123992
v 0.089394 9.301056 0.089395
v -0.123993 9.301056 0.024665
v 0.048380 9.301056 -0.116798
v 0.070236 9.301056 0.105117
v -0.126422 9.301056 0.000001
v 0.070236 9.301056 -0.105115
v 0.048380 9.301056 0.116800
v -0.123993 9.301056 -0.024663
v 0.089394 9.301056 -0.089393
v 0.024664 9.301056 0.123994
v -0.024664 9.301056 -0.123992
v -0.116799 9.301056 -0.048379
v 0.105116 9.301056 -0.070236
v -0.105116 9.301056 -0.070235
v 0.000000 9.301056 0.126423
v 0.116799 9.301056 -0.048379
v -0.089394 9.301056 -0.089393
v -0.024664 9.301056 0.123994
v 0.123993 9.301056 -0.024663
v -0.070236 9.301056 -0.105115
v -0.048380 9.301056 0.116800
v 0.126422 9.301056 0.000001
v -0.048380 9.301056 -0.116798
v -0.070236 9.301056 0.105117
v 0.123993 9.301056 0.024665
v -0.089394 9.301056 0.089395
v 0.070236 -9.830700 0.105114
v 0.048380 -9.830700 0.116797
v 0.089394 -9.830700 0.089392
v -0.024664 -9.830700 0.123991
v 0.000000 -9.830700 0.126420
v -0.089394 -9.830700 -0.089396
v -0.105116 -9.830700 -0.070238
v 0.116799 -9.830700 -0.048382
v 0.105116 -9.830700 -0.070239
v -0.116799 -9.830700 -0.048382
v -0.123993 -9.830700 -0.024666
v 0.024664 -9.830700 0.123991
v 0.089394 -9.830700 -0.089396
v 0.070236 -9.830700 -0.105118
v -0.126422 -9.830700 -0.000002
v -0.123993 -9.830700 0.024662
v 0.048380 -9.830700 -0.116801
v 0.024664 -9.830700 -0.123995
v 0.000000 -9.830700 -0.126424
v -0.116799 -9.830700 0.048378
v -0.105116 -9.830700 0.070234
v 0.105116 -9.830700 0.070234
v 0.116799 -9.830700 0.048378
v -0.089394 -9.830700 0.089392
v -0.070236 -9.830700 0.105114
v -0.048380 -9.830700 0.116797
v -0.024664 -9.830700 -0.123995
v -0.048380 -9.830700 -0.116801
v -0.070236 -9.830700 -0.105118
v 0.123993 -9.830700 0.024662
v 0.126422 -9.830700 -0.000002
v 0.123993 -9.830700 -0.024666
vt 0.000000 0.000000
vt 1.000000 0.000000
vt 1.000000 1.000000
vt 1.000000 0.000000
vt 1.000000 1.000000
vt 1.000000 0.000000
vt 1.000000 1.000000
vt 1.000000 0.000000
vt 1.000000 1.000000
vt 1.000000 0.000000
vt 1.000000 1.000000
vt 1.000000 0.000000
vt 1.000000 1.000000
vt 1.000000 0.000000
vt 1.000000 1.000000
vt 1.000000 0.000000
vt 1.000000 1.000000
vt 1.000000 0.000000
vt 1.000000 1.000000
vt 1.000000 0.000000
vt 1.000000 1.000000
vt 1.000000 0.000000
vt 1.000000 1.000000
vt 1.000000 0.000000
vt 1.000000 1.000000
vt 1.000000 0.000000
vt 1.000000 1.000000
vt 1.000000 0.000000
vt 1.000000 1.000000
vt 1.000000 0.000000
vt 1.000000 1.000000
vt 1.000000 0.000000
vt 1.000000 1.000000
vt 1.000000 0.000000
vt 1.000000 1.000000
vt 1.000000 0.000000
vt 1.000000 1.000000
vt 1.000000 0.000000
vt 1.000000 1.000000
vt 1.000000 0.000000
vt 1.000000 1.000000
vt 1.000000 0.000000
vt 1.000000 1.000000
vt 1.000000 0.000000
vt 1.000000 1.000000
vt 1.000000 0.000000
vt 1.000000 1.000000
vt 1.000000 0.000000
vt 1.000000 1.000000
vt 1.000000 0.000000
vt 1.000000 1.000000
vt 1.000000 0.000000
vt 1.000000 1.000000
vt 1.000000 0.000000
vt 1.000000 1.000000
vt 1.000000 0.000000
vt 1.000000 1.000000
vt 1.000000 0.000000
vt 1.000000 1.000000
vt 1.000000 0.000000
vt 1.000000 1.000000
vt 1.000000 0.000000
vt 1.000000 1.000000
vt 1.000000 0.000000
vt 1.000000 1.000000
vt 0.000000 0.000000
vt 0.000000 1.000000
vt 0.000000 0.000000
vt 0.000000 1.000000
vt 0.000000 0.000000
vt 0.000000 1.000000
vt 0.000000 0.000000
vt 0.000000 1.000000
vt 0.000000 0.000000
vt 0.000000 1.000000
vt 0.000000 0.000000
vt 0.000000 1.000000
vt 0.000000 0.000000
vt 0.000000 1.000000
vt 0.000000 0.000000
vt 0.000000 1.000000
vt 0.000000 0.000000
vt 0.000000 1.000000
vt 0.000000 0.000000
vt 0.000000 1.000000
vt 0.000000 0.000000
vt 0.000000 1.000000
vt 0.000000 0.000000
vt 0.000000 1.000000
vt 0.000000 0.000000
vt 0.000000 1.000000
vt 0.000000 0.000000
vt 0.000000 1.000000
vt 0.000000 0.000000
vt 0.000000 1.000000
vt 0.000000 0.000000
vt 0.000000 1.000000
vt 0.000000 0.000000
vt 0.000000 1.000000
vt 0.000000 0.000000
vt 0.000000 1.000000
vt 0.000000 0.000000
vt 0.000000 1.000000
vt 0.000000 0.000000
vt 0.000000 1.000000
vt 0.000000 0.000000
vt 0.000000 1.000000
vt 0.000000 0.000000
vt 0.000000 1.000000
vt 0.000000 0.000000
vt 0.000000 1.000000
vt 0.000000 0.000000
vt 0.000000 1.000000
vt 0.000000 0.000000
vt 0.000000 1.000000
vt 0.000000 0.000000
vt 0.000000 1.000000
vt 0.000000 0.000000
vt 0.000000 1.000000
vt 0.000000 0.000000
vt 0.000000 1.000000
vt 0.000000 0.000000
vt 0.000000 1.000000
vt 0.000000 0.000000
vt 0.000000 1.000000
vt 0.000000 0.000000
vt 0.000000 1.000000
vt 0.000000 0.000000
vt 0.000000 1.000000
vt 0.500000 1.000000
vt 0.597545 0.990393
vt 0.402456 0.990393
vt 0.000000 0.000000
vt 1.000000 0.000000
vt 0.000000 1.000000
vt 0.000000 0.000000
vt 1.000000 0.000000
vt 0.000000 1.000000
vt 0.000000 0.000000
vt 1.000000 0.000000
vt 0.000000 1.000000
vt 0.000000 0.000000
vt 1.000000 0.000000
vt 0.000000 1.000000
vt 0.000000 0.000000
vt 1.000000 0.000000
vt 0.000000 1.000000
vt 0.000000 0.000000
vt 1.000000 0.000000
vt 0.000000 1.000000
vt 0.000000 0.000000
vt 1.000000 0.000000
vt 0.000000 1.000000
vt 0.000000 0.000000
vt 1.000000 0.000000
vt 0.000000 1.000000
vt 0.000000 0.000000
vt 1.000000 0.000000
vt 0.000000 1.000000
vt 0.000000 0.000000
vt 1.000000 0.000000
vt 0.000000 1.000000
vt 0.000000 0.000000
vt 1.000000 0.000000
vt 0.000000 1.000000
vt 0.000000 0.000000
vt 1.000000 0.000000
vt 0.000000 1.000000
vt 0.000000 0.000000
vt 1.000000 0.000000
vt 0.000000 1.000000
vt 0.000000 0.000000
vt 1.000000 0.000000
vt 0.000000 1.000000
vt 0.000000 0.000000
vt 1.000000 0.000000
vt 0.000000 1.000000
vt 0.000000 0.000000
vt 1.000000 0.000000
vt 0.000000 1.000000
vt 0.000000 0.000000
vt 1.000000 0.000000
vt 0.000000 1.000000
vt 0.000000 0.000000
vt 1.000000 0.000000
vt 0.000000 1.000000
vt 0.000000 0.000000
vt 1.000000 0.000000
vt 0.000000 1.000000
vt 0.000000 0.000000
vt 1.000000 0.000000
vt 0.000000 1.000000
vt 0.000000 0.000000
vt 1.000000 0.000000
vt 0.000000 1.000000
vt 0.000000 0.000000
vt 1.000000 0.000000
vt 0.000000 1.000000
vt 0.000000 0.000000
vt 1.000000 0.000000
vt 0.000000 1.000000
vt 0.000000 0.000000
vt 1.000000 0.000000
vt 0.000000 1.000000
vt 0.000000 0.000000
vt 1.000000 0.000000
vt 0.000000 1.000000
vt 0.000000 0.000000
vt 1.000000 0.000000
vt 0.000000 1.000000
vt 0.000000 0.000000
vt 1.000000 0.000000
vt 0.000000 1.000000
vt 0.000000 0.000000
vt 1.000000 0.000000
vt 0.000000 1.000000
vt 0.000000 0.000000
vt 1.000000 0.000000
vt 0.000000 1.000000
vt 0.000000 0.000000
vt 1.000000 0.000000
vt 0.000000 1.000000
vt 0.000000 0.000000
vt 1.000000 0.000000
vt 0.000000 1.000000
vt 0.000000 0.000000
vt 1.000000 0.000000
vt 0.000000 1.000000
vt 1.000000 1.000000
vt 1.000000 1.000000
vt 1.000000 1.000000
vt 1.000000 1.000000
vt 1.000000 1.000000
vt 1.000000 1.000000
vt 1.000000 1.000000
vt 1.000000 1.000000
vt 1.000000 1.000000
vt 1.000000 1.000000
vt 1.000000 1.000000
vt 1.000000 1.000000
vt 1.000000 1.000000
vt 1.000000 1.000000
vt 1.000000 1.000000
vt 1.000000 1.000000
vt 1.000000 1.000000
vt 1.000000 1.000000
vt 1.000000 1.000000
vt 1.000000 1.000000
vt 1.000000 1.000000
vt 1.000000 1.000000
vt 1.000000 1.000000
vt 1.000000 1.000000
vt 1.000000 1.000000
vt 1.000000 1.000000
vt 1.000000 1.000000
vt 1.000000 1.000000
vt 1.000000 1.000000
vt 1.000000 1.000000
vt 1.000000 1.000000
vt 1.000000 1.000000
vt 0.691342 0.961940
vt 0.777785 0.915735
vt 0.853553 0.853553
vt 0.915735 0.777785
vt 0.961940 0.691342
vt 0.990393 0.597545
vt 1.000000 0.500000
vt 0.990393 0.402455
vt 0.961940 0.308658
vt 0.915735 0.222215
vt 0.853553 0.146447
vt 0.777785 0.084265
vt 0.691342 0.038060
vt 0.597545 0.009607
vt 0.308659 0.961940
vt 0.222215 0.915735
vt 0.146447 0.853554
vt 0.308658 0.038060
vt 0.500000 0.000000
vt 0.402455 0.009607
vt 0.222215 0.084265
vt 0.146446 0.146447
vt 0.084265 0.222215
vt 0.009607 0.402455
vt 0.038060 0.308659
vt 0.009607 0.597546
vt 0.000000 0.500000
vt 0.038060 0.691342
vt 0.084266 0.777786
vt 1.000000 1.000000
vt 1.000000 1.000000
vt 1.000000 1.000000
vt 1.000000 1.000000
vt 1.000000 1.000000
vt 1.000000 1.000000
vt 1.000000 1.000000
vt 1.000000 1.000000
vt 1.000000 1.000000
vt 1.000000 1.000000
vt 1.000000 1.000000
vt 1.000000 1.000000
vt 1.000000 1.000000
vt 1.000000 1.000000
vt 1.000000 1.000000
vt 1.000000 1.000000
vt 1.000000 1.000000
vt 1.000000 1.000000
vt 1.000000 1.000000
vt 1.000000 1.000000
vt 1.000000 1.000000
vt 1.000000 1.000000
vt 1.000000 1.000000
vt 1.000000 1.000000
vt 1.000000 1.000000
vt 1.000000 1.000000
vt 1.000000 1.000000
vt 1.000000 1.000000
vt 1.000000 1.000000
vt 1.000000 1.000000
vt 1.000000 1.000000
vt 1.000000 1.000000
vn -0.0915 0.3592 -0.9288
vn -0.2709 0.3592 -0.8931
vn -0.4399 0.3592 -0.8230
vn -0.5921 0.3592 -0.7214
vn -0.7214 0.3592 -0.5921
vn -0.8231 0.3592 -0.4399
vn -0.8931 0.3592 -0.2709
vn -0.9288 0.3592 -0.0915
vn -0.9288 0.3592 0.0915
vn -0.8931 0.3592 0.2709
vn -0.8231 0.3592 0.4399
vn -0.7214 0.3592 0.5921
vn -0.5921 0.3592 0.7214
vn -0.4399 0.3592 0.8231
vn -0.2709 0.3592 0.8931
vn -0.0915 0.3592 0.9288
vn 0.0915 0.3592 0.9288
vn 0.2709 0.3592 0.8931
vn 0.4399 0.3592 0.8231
vn 0.5921 0.3592 0.7214
vn 0.7214 0.3592 0.5921
vn 0.8231 0.3592 0.4399
vn 0.8931 0.3592 0.2709
vn 0.9288 0.3592 0.0915
vn 0.9288 0.3592 -0.0915
vn 0.8931 0.3592 -0.2709
vn 0.8231 0.3592 -0.4399
vn 0.7214 0.3592 -0.5920
vn 0.5920 0.3592 -0.7214
vn 0.4399 0.3592 -0.8231
vn 0.2709 0.3592 -0.8931
vn 0.0915 0.3592 -0.9288
vn 0.0000 -1.0000 0.0000
vn 0.0000 -1.0000 -0.0005
vn -0.2903 -0.0000 0.9569
vn -0.0980 -0.0000 0.9952
vn -0.6344 0.0000 -0.7730
vn -0.7730 0.0000 -0.6344
vn 0.9569 0.0000 -0.2903
vn 0.8819 0.0000 -0.4714
vn -0.8819 0.0000 -0.4714
vn -0.9569 0.0000 -0.2903
vn 0.0980 -0.0000 0.9952
vn 0.2903 -0.0000 0.9569
vn 0.7730 0.0000 -0.6344
vn 0.6344 0.0000 -0.7730
vn -0.9952 0.0000 -0.0980
vn -0.9952 -0.0000 0.0980
vn 0.4714 -0.0000 0.8819
vn 0.6344 -0.0000 0.7730
vn 0.4714 0.0000 -0.8819
vn 0.2903 0.0000 -0.9569
vn 0.0980 0.0000 -0.9952
vn -0.9569 -0.0000 0.2903
vn -0.8819 -0.0000 0.4714
vn 0.7730 -0.0000 0.6344
vn 0.8819 -0.0000 0.4714
vn -0.7730 -0.0000 0.6344
vn -0.6344 -0.0000 0.7730
vn -0.4714 -0.0000 0.8819
vn -0.0980 0.0000 -0.9952
vn -0.2903 0.0000 -0.9569
vn -0.4714 0.0000 -0.8819
vn 0.9569 -0.0000 0.2903
vn 0.9952 -0.0000 0.0980
vn 0.9952 0.0000 -0.0980
vn 0.0000 -1.0000 0.0002
vn 0.0000 -1.0000 -0.0002
vn 0.0000 -1.0000 0.0001
vn 0.0000 -1.0000 -0.0001
usemtl Default_OBJ
s 1
f 1/1/1 2/2/1 3/3/1
f 1/1/2 3/4/2 4/5/2
f 1/1/3 4/6/3 5/7/3
f 1/1/4 5/8/4 6/9/4
f 1/1/5 6/10/5 7/11/5
f 1/1/6 7/12/6 8/13/6
f 1/1/7 8/14/7 9/15/7
f 1/1/8 9/16/8 10/17/8
f 1/1/9 10/18/9 11/19/9
f 1/1/10 11/20/10 12/21/10
f 1/1/11 12/22/11 13/23/11
f 1/1/12 13/24/12 14/25/12
f 1/1/13 14/26/13 15/27/13
f 1/1/14 15/28/14 16/29/14
f 1/1/15 16/30/15 17/31/15
f 1/1/16 17/32/16 18/33/16
f 1/1/17 18/34/17 19/35/17
f 1/1/18 19/36/18 20/37/18
f 1/1/19 20/38/19 21/39/19
f 1/1/20 21/40/20 22/41/20
f 1/1/21 22/42/21 23/43/21
f 1/1/22 23/44/22 24/45/22
f 1/1/23 24/46/23 25/47/23
f 1/1/24 25/48/24 26/49/24
f 1/1/25 26/50/25 27/51/25
f 1/1/26 27/52/26 28/53/26
f 1/1/27 28/54/27 29/55/27
f 1/1/28 29/56/28 30/57/28
f 1/1/29 30/58/29 31/59/29
f 1/1/30 31/60/30 32/61/30
f 1/1/31 32/62/31 33/63/31
f 1/1/32 33/64/32 2/65/32
f 24/66/33 23/44/33 34/67/33
f 13/68/33 12/22/33 35/69/33
f 2/70/33 33/64/33 36/71/33
f 23/72/33 22/42/33 37/73/33
f 12/74/33 11/20/33 38/75/33
f 33/76/33 32/62/33 39/77/33
f 22/78/33 21/40/33 40/79/33
f 11/80/33 10/18/33 41/81/33
f 32/82/33 31/60/33 42/83/33
f 21/84/33 20/38/33 43/85/33
f 10/86/33 9/16/33 44/87/33
f 31/88/33 30/58/33 45/89/33
f 20/90/33 19/36/33 46/91/33
f 9/92/33 8/14/33 47/93/33
f 30/94/33 29/56/33 48/95/33
f 19/96/33 18/34/33 49/97/33
f 3/98/33 2/2/33 50/99/33
f 8/100/33 7/12/33 51/101/33
f 29/102/33 28/54/33 52/103/33
f 7/104/33 6/10/33 53/105/33
f 18/106/33 17/32/33 54/107/33
f 28/108/33 27/52/33 55/109/33
f 6/110/33 5/8/33 56/111/33
f 17/112/33 16/30/33 57/113/33
f 27/114/33 26/50/33 58/115/33
f 5/116/33 4/6/33 59/117/33
f 16/118/33 15/28/33 60/119/33
f 26/120/33 25/48/33 61/121/33
f 4/122/33 3/4/33 62/123/33
f 15/124/33 14/26/33 63/125/33
f 25/126/33 24/46/33 64/127/33
f 14/128/33 13/24/33 65/129/33
f 66/130/34 67/131/33 68/132/33
f 57/133/35 60/134/35 69/135/35
f 54/136/36 57/137/36 70/138/36
f 56/139/37 59/140/37 71/141/37
f 53/142/38 56/143/38 72/144/38
f 55/145/39 58/146/39 73/147/39
f 52/148/40 55/149/40 74/150/40
f 51/151/41 53/152/41 75/153/41
f 47/154/42 51/155/42 76/156/42
f 49/157/43 54/158/43 77/159/43
f 46/160/44 49/161/44 67/162/44
f 48/163/45 52/164/45 78/165/45
f 45/166/46 48/167/46 79/168/46
f 44/169/47 47/170/47 80/171/47
f 41/172/48 44/173/48 81/174/48
f 43/175/49 46/176/49 66/177/49
f 40/178/50 43/179/50 68/180/50
f 42/181/51 45/182/51 82/183/51
f 39/184/52 42/185/52 83/186/52
f 36/187/53 39/188/53 84/189/53
f 38/190/54 41/191/54 85/192/54
f 35/193/55 38/194/55 86/195/55
f 37/196/56 40/197/56 87/198/56
f 34/199/57 37/200/57 88/201/57
f 65/202/58 35/203/58 89/204/58
f 63/205/59 65/206/59 90/207/59
f 60/208/60 63/209/60 91/210/60
f 50/211/61 36/212/61 92/213/61
f 62/214/62 50/215/62 93/216/62
f 59/217/63 62/218/63 94/219/63
f 64/220/64 34/221/64 95/222/64
f 61/223/65 64/224/65 96/225/65
f 58/226/66 61/227/66 97/228/66
f 23/44/33 37/229/33 34/67/33
f 12/22/33 38/230/33 35/69/33
f 33/64/33 39/231/33 36/71/33
f 22/42/33 40/232/33 37/73/33
f 11/20/33 41/233/33 38/75/33
f 32/62/33 42/234/33 39/77/33
f 21/40/33 43/235/33 40/79/33
f 10/18/33 44/236/33 41/81/33
f 31/60/33 45/237/33 42/83/33
f 20/38/33 46/238/33 43/85/33
f 9/16/33 47/239/33 44/87/33
f 30/58/33 48/240/33 45/89/33
f 19/36/33 49/241/33 46/91/33
f 8/14/33 51/242/33 47/93/33
f 29/56/33 52/243/33 48/95/33
f 18/34/33 54/244/33 49/97/33
f 2/2/33 36/245/33 50/99/33
f 7/12/33 53/246/33 51/101/33
f 28/54/33 55/247/33 52/103/33
f 6/10/33 56/248/33 53/105/33
f 17/32/33 57/249/33 54/107/33
f 27/52/33 58/250/33 55/109/33
f 5/8/33 59/251/33 56/111/33
f 16/30/33 60/252/33 57/113/33
f 26/50/33 61/253/33 58/115/33
f 4/6/33 62/254/33 59/117/33
f 15/28/33 63/255/33 60/119/33
f 25/48/33 64/256/33 61/121/33
f 3/4/33 50/257/33 62/123/33
f 14/26/33 65/258/33 63/125/33
f 24/46/33 34/259/33 64/127/33
f 13/24/33 35/260/33 65/129/33
f 67/131/33 77/261/67 68/132/33
f 77/261/67 70/262/68 68/132/33
f 70/262/68 69/263/69 68/132/33
f 69/263/69 91/264/33 68/132/33
f 91/264/33 90/265/33 68/132/33
f 90/265/33 89/266/33 68/132/33
f 89/266/33 86/267/70 68/132/33
f 86/267/70 85/268/33 68/132/33
f 85/268/33 81/269/33 68/132/33
f 81/269/33 80/270/33 68/132/33
f 80/270/33 76/271/33 68/132/33
f 76/271/33 75/272/33 68/132/33
f 75/272/33 72/273/68 71/274/33
f 68/132/33 75/272/33 71/274/33
f 87/275/33 68/132/33 71/274/33
f 88/276/33 87/275/33 71/274/33
f 95/277/33 88/276/33 71/274/33
f 92/278/68 94/279/67 93/280/33
f 92/278/68 71/274/33 94/279/67
f 84/281/69 71/274/33 92/278/68
f 83/282/70 71/274/33 84/281/69
f 82/283/33 71/274/33 83/282/70
f 78/284/33 82/283/33 79/285/67
f 78/284/33 71/274/33 82/283/33
f 73/286/33 78/284/33 74/287/68
f 73/286/33 71/274/33 78/284/33
f 97/288/33 96/289/70 73/286/33
f 96/289/70 95/277/33 71/274/33
f 73/286/33 96/289/70 71/274/33
f 60/134/35 91/290/35 69/135/35
f 57/137/36 69/291/36 70/138/36
f 59/140/37 94/292/37 71/141/37
f 56/143/38 71/293/38 72/144/38
f 58/146/39 97/294/39 73/147/39
f 55/149/40 73/295/40 74/150/40
f 53/152/41 72/296/41 75/153/41
f 51/155/42 75/297/42 76/156/42
f 54/158/43 70/298/43 77/159/43
f 49/161/44 77/299/44 67/162/44
f 52/164/45 74/300/45 78/165/45
f 48/167/46 78/301/46 79/168/46
f 47/170/47 76/302/47 80/171/47
f 44/173/48 80/303/48 81/174/48
f 46/176/49 67/304/49 66/177/49
f 43/179/50 66/305/50 68/180/50
f 45/182/51 79/306/51 82/183/51
f 42/185/52 82/307/52 83/186/52
f 39/188/53 83/308/53 84/189/53
f 41/191/54 81/309/54 85/192/54
f 38/194/55 85/310/55 86/195/55
f 40/197/56 68/311/56 87/198/56
f 37/200/57 87/312/57 88/201/57
f 35/203/58 86/313/58 89/204/58
f 65/206/59 89/314/59 90/207/59
f 63/209/60 90/315/60 91/210/60
f 36/212/61 84/316/61 92/213/61
f 50/215/62 92/317/62 93/216/62
f 62/218/63 93/318/63 94/219/63
f 34/221/64 88/319/64 95/222/64
f 64/224/65 95/320/65 96/225/65
f 61/227/66 96/321/66 97/228/66
